<svg width="2805" height="4542" viewBox="0 0 2805 4542" fill="none" xmlns="http://www.w3.org/2000/svg">
<g id="waves">
<path id="Vector 11" d="M2065.5 508.5C2394 128 2677.17 -7.66674 2805 0.499926V4081C2792.5 4126.5 2651.8 4080.43 2444 4303.5C2199 4566.5 1614 4374.5 1476 4288C1183.97 4104.95 944 4179.35 539.5 4425.5C108.3 4687.9 200.167 4432.17 0 4374.5V1171C61.8333 1138 233.9 1049.7 417.5 960.5C647 849 547.5 1115.5 1161 898.5C1774.5 681.5 1645.64 994.825 2065.5 508.5Z" fill="url(#paint0_linear)"/>
<path id="Vector 12" d="M2216 549.546C2513.71 168.243 2677.17 271.898 2805 279.35V4002.47C2792.5 4043.98 2599.9 4042.18 2350.5 4270.26C2157.5 4446.77 2126 4270.26 1626.5 4227.3C1249.66 4194.88 1281.5 3932.76 841.5 4177.78C440 4401.35 145.5 4503.83 0 4270.26V1347.33C61.8333 1317.22 87.4055 1252.05 271.5 1171.74C543.5 1053.09 667 1207.53 1164 1053.09C1680.2 892.673 1719.5 1185.47 2216 549.546Z" fill="url(#paint1_linear)" fill-opacity="0.5"/>
<path id="Vector 13" d="M1918.5 1069.15C2339.5 727.778 2698.5 264.763 2805 560.323V3868.18C2652.5 4036.31 2600 3806.22 2298 4055.17C2094.44 4222.98 2009 4203.7 1600 4031.6C1288.43 3900.5 901.397 3909.55 650 4092.89C222 4405.03 111.5 4008.49 0 4106.11V1509.19C24.5 1468.98 0 1405.33 336 1307.26C573.591 1237.91 692.5 1360.53 978.5 1233.23C1558.38 975.111 1572.4 1349.78 1918.5 1069.15Z" fill="url(#paint2_linear)"/>
</g>
<defs>
<linearGradient id="paint0_linear" x1="3085.5" y1="-567.5" x2="-623.499" y2="7240.5" gradientUnits="userSpaceOnUse">
<stop offset="0.366038" stop-color="#63328B" stop-opacity="0.89"/>
<stop offset="1" stop-color="#EC4E32"/>
</linearGradient>
<linearGradient id="paint1_linear" x1="3085.5" y1="-238.903" x2="-100.509" y2="7111.93" gradientUnits="userSpaceOnUse">
<stop offset="0.366038" stop-color="#63328B" stop-opacity="0.89"/>
<stop offset="1" stop-color="#EC4E32"/>
</linearGradient>
<linearGradient id="paint2_linear" x1="3085.5" y1="99.8739" x2="483.904" y2="6855.87" gradientUnits="userSpaceOnUse">
<stop offset="0.366038" stop-color="#63328B" stop-opacity="0.89"/>
<stop offset="1" stop-color="#EC4E32"/>
</linearGradient>
</defs>
</svg>
