<svg width="2807" height="6967" viewBox="0 0 2807 6967" fill="none" xmlns="http://www.w3.org/2000/svg">
<g id="waves">
<path id="Vector 8" d="M2080.54 505C2411.5 107 2667.51 17 2806.01 0L2805.51 6967H0.623047L1.50729 1137.5C-5.5 1079 305.046 991.329 385 1005.5C1031 1120 906.436 836.623 1345.07 800.5C1679 773 1801.57 840.479 2080.54 505Z" fill="url(#paint0_linear)"/>
<path id="Vector 9" d="M2365.55 365.528C2554.21 144.128 2685.01 235.819 2806 235.819L2805.5 6967H1L1.88412 1281.78C-5.12221 1224.72 406.644 1097.55 487.811 1099.4C1172.72 1115.01 1091.59 888.87 1530.17 853.641C1864.05 826.821 2109.59 665.905 2365.55 365.528Z" fill="url(#paint1_linear)" fill-opacity="0.5"/>
<path id="Vector 10" d="M2413.05 481.601C2616.24 293.917 2774.5 321.14 2806 413.714L2805.5 6967H1L1.88412 1432.03C-5.12221 1376.48 170.221 1194.19 559.801 1205.58C1339.19 1228.36 1158.72 1002.86 1529.17 1002.86C1862.93 1002.86 2156.58 718.496 2413.05 481.601Z" fill="url(#paint2_linear)" fill-opacity="0.5"/>
</g>
<defs>
<linearGradient id="paint0_linear" x1="2806" y1="196" x2="-1955.5" y2="5376.5" gradientUnits="userSpaceOnUse">
<stop offset="0.244792" stop-color="#63328B" stop-opacity="0.82"/>
<stop offset="1" stop-color="#EC4E32" stop-opacity="0.78"/>
</linearGradient>
<linearGradient id="paint1_linear" x1="2805.99" y1="363.577" x2="-1826.51" y2="5530.93" gradientUnits="userSpaceOnUse">
<stop offset="0.244792" stop-color="#63328B" stop-opacity="0.76"/>
<stop offset="1" stop-color="#EC4E32" stop-opacity="0.83"/>
</linearGradient>
<linearGradient id="paint2_linear" x1="2805.99" y1="538.094" x2="-1689.36" y2="5688.58" gradientUnits="userSpaceOnUse">
<stop offset="0.244792" stop-color="#63328B" stop-opacity="0.76"/>
<stop offset="1" stop-color="#EC4E32" stop-opacity="0.83"/>
</linearGradient>
</defs>
</svg>
